<!-- icon666.com - MILLIONS vector ICONS FREE --><svg id="_x33_0" enable-background="new 0 0 64 64" viewBox="0 0 64 64" xmlns="http://www.w3.org/2000/svg"><g><g><g><path d="m47.41 47.13c8.74 1.4 14.59 3.95 14.59 6.87 0 4.42-13.43 8-30 8s-30-3.58-30-8c0-1.85 2.37-3.56 6.34-4.92.51 2.11 1.6 4 3.09 5.49 2.13 2.12 5.05 3.43 8.29 3.43 3.16 0 6.15-1.27 8.33-3.47l.73.36c1.46.73 3.07 1.11 4.71 1.11 2.23 0 4.4-.71 6.21-2.02.1.01.2.02.3.02h2l.11.21c.54 1.1 1.66 1.79 2.89 1.79s2.35-.69 2.89-1.79l.11-.21h1.61c1.32 0 2.39-1.07 2.39-2.39 0-.97-.59-1.85-1.5-2.21l-3.3-1.32c.08-.2.13-.4.16-.62z" fill="#ccd1d9"></path></g><g><path d="m13.41 42h.76c1.81 0 3.55-.72 4.83-2l.23.23c1.13 1.13 2.67 1.77 4.27 1.77s3.14-.64 4.27-1.77l1.23-1.23.25.37c1.03 1.55 2.98 2.22 4.75 1.63l.53 1.59c.3.91.91 1.7 1.71 2.23.72.49 1.55.73 2.4.73.46 0 .92-.07 1.37-.22l.99-.33.52 2.62c.04.21.11.41.19.6l-2.91 2.18c-.5.38-.8.97-.8 1.6 0 .55.22 1.05.59 1.41.29.3.68.5 1.11.57-1.81 1.31-3.98 2.02-6.21 2.02-1.64 0-3.25-.38-4.71-1.11l-.73-.36c.53-.53 1.01-1.11 1.43-1.75l.23-.34c.19-.29.29-.62.29-.97v-.17c0-.77-.51-1.45-1.24-1.67l-.98-.3-7.54-2.26-1.1-.33-7.12-2.14c.09-1.01.55-1.92 1.26-2.6v-.01c.04.01.09.01.13.01z" fill="#ffeaa7"></path></g><g><path d="m10.25 44.07.78.24.27 2.68c.18 1.8.92 3.44 2.04 4.72 1.41 1.62 3.42 2.69 5.68 2.88.23.02.46.03.69.03.73 0 1.45-.09 2.14-.28 1.98-.51 3.75-1.74 4.92-3.5l1.01-1.51.98.3c.73.22 1.24.9 1.24 1.67v.17c0 .35-.1.68-.29.97l-.23.34c-.42.64-.9 1.22-1.43 1.75-2.18 2.2-5.17 3.47-8.33 3.47-3.24 0-6.16-1.31-8.29-3.43-1.49-1.49-2.58-3.38-3.09-5.49-.22-.9-.34-1.83-.34-2.8v-.54c0-.96.78-1.74 1.74-1.74.17 0 .34.02.51.07z" fill="#a0d468"></path></g><g><path d="m20.24 47.07-1.1-.33-7.12-2.14-.99-.29.27 2.68c.18 1.8.92 3.44 2.04 4.72 1.41 1.62 3.42 2.69 5.68 2.88.23.02.46.03.69.03.73 0 1.45-.09 2.14-.28 1.98-.51 3.75-1.74 4.92-3.5l1.01-1.51z" fill="#b4dd7f"></path></g><g><path d="m60.27 33.13-6.27.79 6.33-11.01c.11-.2.17-.42.17-.63 0-.47-.25-.92-.69-1.15-.49-.24-1.07-.14-1.45.24l-8.5 8.63-.73-5.08v-.01l2.75-4.38c.08-.13.12-.27.12-.41 0-.2-.08-.41-.24-.56-.31-.31-.82-.31-1.14 0l-4.52 4.44.94-14.86c0-.02 0-.05 0-.07 0-.59-.48-1.07-1.09-1.07-.51 0-.95.35-1.06.84l-3.12 13.77-1.61-9.64c-.09-.56-.58-.97-1.14-.97-.59 0-1.08.43-1.15 1.01l-1.68 12.54c1.92 1.15 3.5 2.83 4.53 4.89l.28.56c1.28.18 2.46.65 3.47 1.35.57.39 1.09.86 1.54 1.38 1.19 1.37 1.92 3.14 1.98 5.07h.01l12.76-2.6c.72-.14 1.24-.78 1.24-1.52 0-.94-.81-1.67-1.73-1.55z" fill="#b4dd7f"></path></g><g><path d="m45 49.94c.51-.1.98-.33 1.37-.66.37-.32.66-.73.83-1.2l3.3 1.32c.91.36 1.5 1.24 1.5 2.21 0 1.32-1.07 2.39-2.39 2.39h-1.61l-.11.21c-.54 1.1-1.66 1.79-2.89 1.79s-2.35-.69-2.89-1.79l-.11-.21h-2c-.1 0-.2-.01-.3-.02-.43-.07-.82-.27-1.11-.57-.37-.36-.59-.86-.59-1.41 0-.63.3-1.22.8-1.6l2.91-2.18c.47 1.06 1.52 1.78 2.72 1.78.19 0 .38-.02.57-.06z" fill="#fc6e51"></path></g><g><path d="m47.99 38.8c-.06-1.93-.79-3.7-1.98-5.07-.45-.52-.97-.99-1.54-1.38-1.01-.7-2.19-1.17-3.47-1.35l-.28-.56c-1.03-2.06-2.61-3.74-4.53-4.89-1.27-.77-2.69-1.29-4.19-1.55l-1.66-3.32c-.37-.74-.92-1.36-1.58-1.82-.8-.55-1.75-.86-2.76-.86-.92 0-1.8.26-2.55.72-.53.33-1 .77-1.38 1.28h-1.45c-2.25 0-4.33 1.18-5.48 3.11l-.56.93c-2.58.31-4.58 2.5-4.58 5.17 0 .87.22 1.71.62 2.46s.98 1.39 1.7 1.88l.1.06c-1.51 1.18-2.42 3.02-2.42 4.98 0 .9.36 1.77 1 2.41.58.58 1.35.93 2.28.99.04.01.09.01.13.01h.76c1.81 0 3.55-.72 4.83-2l.23.23c1.13 1.13 2.67 1.77 4.27 1.77s3.14-.64 4.27-1.77l1.23-1.23.25.37c1.03 1.55 2.98 2.22 4.75 1.63l.53 1.59c.3.91.91 1.7 1.71 2.23.72.49 1.55.73 2.4.73.46 0 .92-.07 1.37-.22l.99-.33.52 2.62c.04.21.11.41.19.6.47 1.06 1.52 1.78 2.72 1.78.19 0 .38-.02.57-.06.51-.1.98-.33 1.37-.66.37-.32.66-.73.83-1.2.08-.2.13-.4.16-.62l.05-.33.03-.24c.23-1.61.39-3.23.47-4.86.06-.98.09-1.97.09-2.96 0-.09 0-.18-.01-.27z" fill="#ff826e"></path></g></g><g><path d="m23 33h2c0-2.214-1.1-4.269-2.941-5.496l-.504-.336-1.109 1.664.504.336c1.283.856 2.05 2.289 2.05 3.832z"></path><path d="m35 48h2v2h-2z"></path><path d="m31 46h2v2h-2z"></path><path d="m23 44h2v2h-2z"></path><path d="m29 42h2v2h-2z"></path><path d="m48.525 46.308c.287-2.215.444-4.458.466-6.691l11.973-2.431c1.18-.24 2.036-1.295 2.036-2.511 0-.739-.316-1.442-.868-1.928-.545-.479-1.263-.703-1.984-.612l-4.278.543 5.326-9.271c.311-.541.386-1.194.207-1.792-.178-.594-.594-1.094-1.143-1.373-.872-.443-1.922-.273-2.61.428l-7.086 7.195-.39-2.73 2.556-4.073c.447-.714.338-1.626-.265-2.218-.699-.687-1.84-.687-2.539 0l-2.663 2.613.78-12.256c.036-.564-.167-1.125-.556-1.54-.395-.42-.954-.661-1.533-.661-.985 0-1.825.665-2.042 1.618l-1.994 8.803-.769-4.616c-.175-1.046-1.072-1.805-2.132-1.805-1.078 0-2 .806-2.143 1.875l-1.484 11.129c-.864-.394-1.774-.698-2.717-.895l-1.437-2.873c-.298-.596-.694-1.114-1.151-1.562l.118-.178c.522-.781.797-1.689.797-2.627 0-1.483-.709-2.9-1.896-3.79l-1.63-1.223c-.296-.223-.474-.578-.474-.95 0-.313.127-.619.348-.84 1.065-1.066 1.652-2.482 1.652-3.988 0-2.249-1.829-4.078-4.172-4.078-2.11 0-3.828 1.717-3.828 3.829 0 1.022.398 1.983 1.122 2.708l.172.171 1.412-1.416-.171-.17c-.345-.346-.535-.805-.535-1.293 0-1.009.82-1.829 1.922-1.829 1.145 0 2.078.932 2.078 2.078 0 .972-.379 1.887-1.066 2.575-.603.601-.934 1.402-.934 2.253 0 .998.477 1.951 1.275 2.55l1.63 1.223c.686.514 1.095 1.332 1.095 2.19 0 .542-.159 1.067-.46 1.518l-.098.147c-.751-.344-1.578-.534-2.442-.534-1.723 0-3.306.745-4.4 2h-.979c-2.583 0-5.013 1.376-6.342 3.591l-.321.536c-2.826.581-4.958 3.088-4.958 6.084 0 1.707.704 3.305 1.908 4.464-1.201 1.333-1.908 3.079-1.908 4.911 0 1.179.459 2.287 1.293 3.121.384.384.831.679 1.312.895-.125.238-.227.486-.314.741l-.758-.227c-.255-.077-.52-.116-.789-.116-1.513 0-2.744 1.231-2.744 2.744v.531c0 .74.077 1.46.198 2.166-4.096 1.536-6.198 3.402-6.198 5.559 0 5.846 15.972 9 31 9s31-3.154 31-9c0-4.436-8.661-6.683-14.475-7.692zm-8.525 6.692c-.552 0-1-.448-1-1 0-.313.149-.612.399-.8l2.061-1.546c.642.726 1.544 1.198 2.54 1.308v2.038h2v-2.341c.657-.288 1.221-.747 1.639-1.326l2.491.997c.528.21.87.716.87 1.285 0 .764-.621 1.385-1.385 1.385h-2.233l-.382.764c-.381.762-1.147 1.236-2 1.236s-1.619-.474-2-1.236l-.382-.764zm-7.221-27.798c3.037.79 5.631 2.854 7.047 5.685l.013.027-6.446 9.208c-1.259.29-2.588-.217-3.316-1.308l-.016-.025zm8.67 6.9c3.203.74 5.551 3.634 5.551 6.969 0 .763-.022 1.528-.054 2.293l-6.299 2.699-.953.318c-.98.325-2.041.186-2.902-.39-.613-.409-1.08-1.02-1.313-1.719l-.371-1.112zm2.981 16.898c-.933 0-1.742-.664-1.926-1.579l-.364-1.822 4.663-1.998c-.088 1.054-.199 2.105-.348 3.147l-.081.566c-.138.961-.974 1.686-1.944 1.686zm4.368-19.343-1.511 1.534 1.426 1.403 10.362-10.521c.075-.078.185-.096.279-.048.081.042.116.111.132.162.013.044.027.133-.025.225l-7.33 12.757 8.269-1.05c.195-.025.343.069.41.128.071.063.19.202.19.428 0 .268-.183.499-.435.55l-11.691 2.374c-.356-2.156-1.476-4.086-3.089-5.472l2.741-4.368zm-9.942-16.517c.021-.158.294-.163.319-.005l1.574 9.443-.725 3.201 1.951.441 3.888-17.16c.006-.029.04-.06.091-.06l.092.075-1.112 17.468 5.189-5.09-5.99 9.547c-.763-.409-1.588-.719-2.464-.898l-.054-.108c-1.007-2.013-2.527-3.687-4.35-4.919zm-25.266 20.873 1.925-1.155-1.029-1.715-1.925 1.155c-.042.025-.079.057-.12.083-.91-.794-1.441-1.943-1.441-3.17 0-2.322 1.889-4.211 4.211-4.211h1.789v-2h-.566c.964-1.184 2.404-1.911 3.94-1.984l-1.268 2.536 1.789.895 1.658-3.317c.657-1.314 1.977-2.13 3.447-2.13s2.79.816 3.447 2.13l1.505 3.01-2.873 14.366-1.018 1.018c-.952.953-2.216 1.476-3.561 1.476s-2.609-.523-3.561-1.475l-2.232-2.232-1.414 1.414 1.227 1.227c-.975.683-2.15 1.066-3.348 1.066h-.758c-.645 0-1.251-.251-1.707-.707s-.707-1.063-.707-1.707c0-1.862.992-3.615 2.59-4.573zm.137 8.987h.445c1.735 0 3.435-.599 4.8-1.656 1.267 1.07 2.851 1.656 4.528 1.656 1.879 0 3.646-.731 4.975-2.061l.411-.411c1.127 1.24 2.797 1.852 4.451 1.644l.245.734c.373 1.119 1.119 2.096 2.101 2.75 1.354.903 3.01 1.139 4.559.65l.302 1.507c.002.008.005.016.007.024l-2.35 1.763c-.753.563-1.201 1.461-1.201 2.4 0 .764.296 1.455.768 1.985-1.32.666-2.775 1.015-4.281 1.015-1.312 0-2.618-.29-3.82-.816.221-.278.447-.551.646-.85l.226-.339c.301-.451.461-.978.461-1.523v-.174c0-1.221-.786-2.277-1.956-2.629l-15.84-4.752c.122-.332.297-.641.523-.917zm3.37 4.173-3.599 3.085c-.65-.984-1.08-2.128-1.204-3.368l-.119-1.194zm2.275.682.017.005 1.261 5.677c-.508.064-1.023.093-1.545.051-1.64-.137-3.125-.804-4.292-1.826zm3.213 5.17-1.001-4.505 4.611 1.384-.258.386c-.832 1.25-2.011 2.178-3.352 2.735zm-13.585-7.281c0-.41.334-.744.744-.744.073 0 .145.011.213.03l.146.044.201 2.015c.454 4.542 4.086 8.113 8.635 8.492.264.022.525.033.787.033 3.147 0 6.113-1.569 7.877-4.216l.596-.895.271.081c.317.096.53.383.53.714v.174c0 .148-.043.29-.125.413l-.227.34c-1.993 2.99-5.329 4.775-8.923 4.775-5.913 0-10.725-4.812-10.725-10.725zm23 15.256c-17.968 0-29-4.077-29-7 0-1.154 1.743-2.476 4.694-3.615 1.714 5.003 6.454 8.615 12.031 8.615 3.188 0 6.203-1.185 8.511-3.264l.092.046c1.594.797 3.378 1.218 5.159 1.218 2.333 0 4.563-.697 6.482-2.003.011 0 .02.003.031.003h1.401c.769 1.243 2.115 2 3.599 2s2.83-.757 3.599-2h1.017c1.865 0 3.384-1.519 3.384-3.385 0-1.028-.457-1.967-1.215-2.597 6.294 1.51 9.215 3.524 9.215 4.982 0 2.923-11.032 7-29 7z"></path><path d="m16.317 13.493c.409.136.683.517.683.947 0 .458-.312.857-.757.968l-.545.137c-1.589.396-2.698 1.817-2.698 3.455h2c0-.718.486-1.341 1.184-1.515l.546-.137c1.336-.334 2.27-1.53 2.27-2.908 0-1.292-.824-2.435-2.05-2.844l-1.634-.544-.633 1.897z"></path><path d="m13.293 9.707 1.414-1.414-1.148-1.149c-.355-.355-.559-.846-.559-1.348 0-.727.403-1.38 1.054-1.705l.394-.197-.895-1.789-.394.197c-1.332.666-2.159 2.005-2.159 3.494 0 1.043.406 2.024 1.145 2.762z"></path><path d="m7.204 13.72.742.371c.651.325 1.054.978 1.054 1.705 0 .501-.204.993-.559 1.348l-.441.441c-.645.645-1 1.502-1 2.415s.355 1.77 1 2.414l1.293 1.293 1.414-1.414-1.293-1.293c-.268-.267-.414-.622-.414-1s.146-.733.414-1l.441-.441c.739-.739 1.145-1.72 1.145-2.763 0-1.489-.827-2.828-2.159-3.494l-.742-.371c-.678-.339-1.099-1.02-1.099-1.778 0-.857.546-1.615 1.359-1.886l.957-.319-.632-1.897-.957.319c-1.631.544-2.727 2.065-2.727 3.783 0 1.521.845 2.888 2.204 3.567z"></path><path d="m17 7h2v2h-2z"></path><path d="m23 13h2v2h-2z"></path></g></g></svg>